# xmcd CD database file
#
# Track frame offsets:
#	182
#	22505
#	46482
#	65522
#	85892
#	105765
#	145017
#	178577
#	199020
#	223122
#	244977
#	259025
#
# Disc length: 3731 seconds
#
# Revision: 2
# Processed by: cddbd v1.5PL3 Copyright (c) Steve Scherf et al.
# Submitted via: CDex 1.51
#
DISCID=9c0e910c
DTITLE=Backroots - Think
DYEAR=1996
DGENRE=Blues
TTITLE0=Think
TTITLE1=It´s not getting better
TTITLE2=I need you
TTITLE3=Your blues
TTITLE4=Missisippi
TTITLE5=Working man blues
TTITLE6=Love
TTITLE7=To my son
TTITLE8=So lonely
TTITLE9=Charly´s blues
TTITLE10=Guitar man
TTITLE11=Giving my regards
EXTD=YEAR: 1996
EXTT0=
EXTT1=
EXTT2=
EXTT3=
EXTT4=
EXTT5=
EXTT6=
EXTT7=
EXTT8=
EXTT9=
EXTT10=
EXTT11=
PLAYORDER=
